<svg id="_ŽÓť_1" data-name="—ŽÓť_1" xmlns="http://www.w3.org/2000/svg" viewBox="0 0 636.42 595.19"><path d="M481.46,204.36a11.11,11.11,0,0,1-11.11-11.12c0-84.05-68.41-152.44-152.46-152.44C252.64,40.8,194.83,82.7,174,145.07a11.12,11.12,0,0,1-21.09-7c23.82-71.46,90.11-119.49,165-119.49,96.34,0,174.68,78.36,174.68,174.69A11.1,11.1,0,0,1,481.46,204.36Z" fill="#434a53"/><path d="M497.8,343.72a107.65,107.65,0,0,1-33.6-5.81,11.12,11.12,0,1,1,7-21.1,85.44,85.44,0,0,0,26.57,4.67,86.47,86.47,0,0,0,86.38-86.36c0-47.26-38.75-85.71-86.38-85.71-8.58,0-15.14.86-20.69,2.7a11.13,11.13,0,0,1-7-21.12c7.89-2.61,16.68-3.83,27.72-3.83,59.89,0,108.6,48.43,108.6,108A108.72,108.72,0,0,1,497.8,343.72Z" fill="#434a53"/><path d="M138,343.72c-59.53,0-108-48.72-108-108.6A108.3,108.3,0,0,1,216,160a11.12,11.12,0,0,1-16,15.46A86,86,0,0,0,52.26,235.12c0,47.61,38.45,86.36,85.71,86.36a79.15,79.15,0,0,0,26.35-4.59,11.12,11.12,0,0,1,7.5,20.94A101.69,101.69,0,0,1,138,343.72Z" fill="#434a53"/><path d="M168.71,522.33a11.12,11.12,0,0,1-11-9.72c-7.19-56.19-20.48-115.87-39.5-177.37a11.13,11.13,0,1,1,21.26-6.58c19.39,62.72,33,123.67,40.31,181.14a11.13,11.13,0,0,1-9.63,12.44A13.36,13.36,0,0,1,168.71,522.33Z" fill="#434a53"/><path d="M467.74,522.33a14.46,14.46,0,0,1-1.45-.09,11.11,11.11,0,0,1-9.6-12.44C464,452.38,477.59,391.43,497,328.66a11.11,11.11,0,1,1,21.23,6.58c-19,61.54-32.32,121.23-39.51,177.37A11.1,11.1,0,0,1,467.74,522.33Z" fill="#434a53"/><path d="M473.6,576.64H234.8a11.13,11.13,0,0,1,0-22.25H473.6a11.13,11.13,0,0,1,0,22.25Zm-277.4,0H162.83a11.13,11.13,0,0,1,0-22.25H196.2a11.13,11.13,0,0,1,0,22.25Z" fill="#434a53"/><path d="M147.12,525.61a11.13,11.13,0,0,1-1.65-22.13,1165,1165,0,0,1,345.48,0,11.15,11.15,0,0,1,9.36,12.65,11.29,11.29,0,0,1-12.65,9.35,1141.48,1141.48,0,0,0-338.87,0A12,12,0,0,1,147.12,525.61Z" fill="#434a53"/><path d="M162.84,576.64a11.12,11.12,0,0,1-8.91-4.45c-11.16-14.9-17.19-34.2-17.91-57.36a11.11,11.11,0,0,1,10.76-11.46c6.09-.85,11.27,4.61,11.46,10.76.59,18.51,5.12,33.54,13.49,44.71a11.12,11.12,0,0,1-8.89,17.8Z" fill="#434a53"/><path d="M473.6,576.64a11.14,11.14,0,0,1-9.11-17.52c7.93-11.3,12.53-26.56,13.73-45.33.36-6.12,5.18-10.63,11.79-10.41a11.12,11.12,0,0,1,10.39,11.8c-1.42,22.93-7.37,42-17.7,56.72A11.11,11.11,0,0,1,473.6,576.64Z" fill="#434a53"/><path d="M423.87,328.68a11,11,0,0,1-3.42-.54c-66.76-21.61-137.7-21.62-205.16,0A11.12,11.12,0,0,1,208.51,307c71.9-23.06,147.59-23,218.79,0a11.13,11.13,0,0,1-3.43,21.71Z" fill="#434a53"/></svg>
