<svg id="_ŽÓť_1" data-name="—ŽÓť_1" xmlns="http://www.w3.org/2000/svg" viewBox="0 0 1219.43 1033.08"><path d="M610.76,982.08c19.42-7.43,123.64-86.3,190.6-138.5,60-46.77,118.94-95.06,168.81-150,16.2-17.84,30.15-33.58,42.05-47.26A646,646,0,0,0,1111,494.89c7.5-16.11,14.68-32.29,20.3-46.28,27.51-68.43,32-142.25,12.67-212.73a246.34,246.34,0,0,0-9.32-28.25C1081.77,80.4,938.17,55.47,938.17,55.47,775.85,19.47,609.37,213,609.37,213S442.62,19.86,280.42,56.25c0,0-143.53,25.27-196,152.62a248.73,248.73,0,0,0-9.23,28.27C56,307.67,60.77,381.48,88.49,449.84c5.66,14,12.9,30.14,20.44,46.24a647.19,647.19,0,0,0,99.3,151.17c12,13.65,26,29.36,42.2,47.17,50,54.84,109.15,103,169.28,149.61,67.13,52,171.61,130.67,191.05,138.05Z" fill="none" stroke="#000" stroke-miterlimit="10" stroke-width="55"/></svg>