<svg width="183" height="553" viewBox="0 0 183 553" fill="none" xmlns="http://www.w3.org/2000/svg">
<path d="M0 365.915L-4.00869e-06 274.207L91.7081 274.207L0 365.915Z" fill="#E6E6F8"/>
<path d="M91.708 369.584L91.708 461.292L-0.00011845 461.292L91.708 369.584Z" fill="#E6E6F8"/>
<path d="M0 274.207H91.7081V365.915L0 274.207Z" fill="#30354B"/>
<circle cx="46.3125" cy="224.226" r="38.0589" fill="#F4F5F7"/>
<path d="M45.854 273.353C45.854 248.5 66.0012 228.353 90.854 228.353H91.7081V229.207C91.7081 254.06 71.5609 274.207 46.7081 274.207H45.854V273.353Z" fill="#4236FF"/>
<path d="M45 274.207C20.1472 274.207 -8.80662e-07 254.06 -1.96701e-06 229.207L-2.00434e-06 228.353L0.854044 228.353C25.7069 228.353 45.8541 248.5 45.8541 273.353L45.8541 274.207L45 274.207Z" fill="#303647"/>
<path d="M45.854 227.499C45.854 202.646 66.0012 182.499 90.854 182.499H91.7081V183.353C91.7081 208.206 71.5609 228.353 46.7081 228.353H45.854V227.499Z" fill="#4236FF"/>
<path d="M45 228.353C20.1472 228.353 -8.80662e-07 208.206 -1.96701e-06 183.353L-2.00434e-06 182.499L0.854044 182.499C25.7069 182.499 45.8541 202.646 45.8541 227.499L45.8541 228.353L45 228.353Z" fill="#303647"/>
<circle cx="139.855" cy="503.019" r="38.0589" fill="#F4F5F7"/>
<path d="M139.396 508C139.396 532.853 159.543 553 184.396 553H185.25V552.146C185.25 527.293 165.103 507.146 140.25 507.146H139.396V508Z" fill="#4236FF"/>
<path d="M138.542 507.146C113.689 507.146 93.5422 527.293 93.5422 552.146L93.5422 553L94.3963 553C119.249 553 139.396 532.853 139.396 508L139.396 507.146L138.542 507.146Z" fill="#E6E6F8"/>
<path d="M139.396 506.292C139.396 481.439 159.543 461.292 184.396 461.292H185.25V462.146C185.25 486.999 165.103 507.146 140.25 507.146H139.396V506.292Z" fill="#E6E6F8"/>
<path d="M138.542 507.146C113.689 507.146 93.5422 486.999 93.5422 462.146L93.5422 461.292L94.3963 461.292C119.249 461.292 139.396 481.439 139.396 506.292L139.396 507.146L138.542 507.146Z" fill="#4236FF"/>
<path d="M183.416 274.207L91.7079 274.207C91.7079 274.207 92.0077 233.448 117.332 208.123C142.657 182.799 183.416 182.499 183.416 182.499L183.416 274.207Z" fill="#4236FF"/>
<path d="M183.416 274.207L129.308 274.207C129.308 274.207 129.485 250.159 144.427 235.218C159.368 220.276 183.416 220.1 183.416 220.1L183.416 274.207Z" fill="#F4F5F7"/>
<path d="M183.416 274.207L159.572 274.207C159.572 274.207 159.65 263.61 166.234 257.025C172.819 250.441 183.416 250.363 183.416 250.363L183.416 274.207Z" fill="#30354B"/>
<path d="M91.708 51C91.708 22.8335 114.541 0 142.708 0H183.416V41.7081C183.416 69.3223 161.03 91.7081 133.416 91.7081H91.708V51Z" fill="#4236FF"/>
<path d="M110.967 44.2587C110.967 30.4516 122.16 19.2587 135.967 19.2587H164.158V47.4494C164.158 61.2565 152.965 72.4494 139.158 72.4494H110.967V44.2587Z" fill="#303647"/>
<path d="M91.708 75.8541C91.708 59.2855 105.139 45.8541 121.708 45.8541H137.562V61.7081C137.562 78.2767 124.131 91.7081 107.562 91.7081H91.708V75.8541Z" fill="#E6E6F8"/>
<path d="M91.708 51C91.708 22.8335 68.8745 0 40.708 0H-0.000114441V41.7081C-0.000114441 69.3223 22.3857 91.7081 49.9999 91.7081H91.708V51Z" fill="#F4F5F7"/>
<path d="M72.4492 44.2587C72.4492 30.4516 61.2563 19.2587 47.4492 19.2587H19.2585V47.4494C19.2585 61.2565 30.4514 72.4494 44.2585 72.4494H72.4492V44.2587Z" fill="#E6E6F8"/>
<path d="M45.854 30C45.854 13.4315 32.4225 0 15.854 0H-5.72205e-05V15.854C-5.72205e-05 32.4226 13.4314 45.8541 29.9999 45.8541H45.854V30Z" fill="#4236FF"/>
<rect x="113.718" y="114.635" width="50.4395" height="46.7711" fill="#F4F5F7"/>
<path d="M98.1279 100.879H129.309C129.309 100.879 129.207 113.514 120.596 121.365C111.986 129.216 98.1279 129.308 98.1279 129.308V100.879Z" fill="#E6E6F8"/>
<path d="M177.914 100.879H146.733C146.733 100.879 146.835 113.514 155.446 121.365C164.056 129.216 177.914 129.308 177.914 129.308V100.879Z" fill="#E6E6F8"/>
<path d="M98.1279 176.08H129.309C129.309 176.08 129.207 163.444 120.596 155.594C111.986 147.743 98.1279 147.65 98.1279 147.65V176.08Z" fill="#E6E6F8"/>
<path d="M177.914 176.08H146.733C146.733 176.08 146.835 163.444 155.446 155.594C164.056 147.743 177.914 147.65 177.914 147.65V176.08Z" fill="#E6E6F8"/>
<rect x="118.304" y="138.051" width="29.2235" height="29.1392" transform="rotate(-45 118.304 138.051)" fill="#303647"/>
<rect x="25.6782" y="365.487" width="29.2235" height="29.1392" transform="rotate(-45 25.6782 365.487)" fill="#F4F5F7"/>
<circle cx="138.479" cy="320.978" r="46.7711" fill="#E6E6F8"/>
<circle cx="138.938" cy="321.437" r="27.971" fill="#30354B"/>
<circle cx="139.396" cy="320.978" r="14.6733" fill="#4236FF"/>
<circle cx="138.479" cy="414.521" r="46.7711" fill="#4236FF"/>
<circle cx="138.938" cy="414.979" r="27.971" fill="#F4F5F7"/>
<circle cx="139.396" cy="414.521" r="14.6733" fill="#30354B"/>
<path d="M185.25 461.292L131.142 461.292C131.142 461.292 131.319 437.244 146.261 422.302C161.202 407.361 185.25 407.184 185.25 407.184L185.25 461.292Z" fill="#E6E6F8"/>
</svg>
